<?xml version="1.0" encoding="UTF-8" standalone="no"?>
<!DOCTYPE svg PUBLIC "-//W3C//DTD SVG 1.1//EN"
 "http://www.w3.org/Graphics/SVG/1.1/DTD/svg11.dtd">
<!-- Generated by graphviz version 2.40.1 (20161225.0304)
 -->
<!-- Title: g Pages: 1 -->
<svg width="223pt" height="332pt"
 viewBox="0.00 0.00 223.00 332.00" xmlns="http://www.w3.org/2000/svg" xmlns:xlink="http://www.w3.org/1999/xlink">
<g id="graph0" class="graph" transform="scale(1 1) rotate(0) translate(4 328)">
<title>g</title>
<polygon fill="#ffffff" stroke="transparent" points="-4,4 -4,-328 219,-328 219,4 -4,4"/>
<!-- 0 -->
<g id="node1" class="node">
<title>0</title>
<ellipse fill="none" stroke="#000000" cx="106" cy="-306" rx="27" ry="18"/>
<text text-anchor="middle" x="106" y="-301.8" font-family="Times,serif" font-size="14.00" fill="#000000">0</text>
</g>
<!-- 2 -->
<g id="node3" class="node">
<title>2</title>
<ellipse fill="none" stroke="#000000" cx="27" cy="-234" rx="27" ry="18"/>
<text text-anchor="middle" x="27" y="-229.8" font-family="Times,serif" font-size="14.00" fill="#000000">2</text>
</g>
<!-- 0&#45;&#45;2 -->
<g id="edge2" class="edge">
<title>0&#45;&#45;2</title>
<path fill="none" stroke="#000000" d="M90.0132,-291.4297C76.307,-278.938 56.6623,-261.034 42.9631,-248.5486"/>
</g>
<!-- 3 -->
<g id="node4" class="node">
<title>3</title>
<ellipse fill="none" stroke="#000000" cx="65" cy="-162" rx="27" ry="18"/>
<text text-anchor="middle" x="65" y="-157.8" font-family="Times,serif" font-size="14.00" fill="#000000">3</text>
</g>
<!-- 0&#45;&#45;3 -->
<g id="edge1" class="edge">
<title>0&#45;&#45;3</title>
<path fill="none" stroke="#000000" d="M100.8902,-288.0535C92.9906,-260.3085 77.9057,-207.3275 70.0454,-179.7204"/>
</g>
<!-- 4 -->
<g id="node5" class="node">
<title>4</title>
<ellipse fill="none" stroke="#000000" cx="175" cy="-234" rx="27" ry="18"/>
<text text-anchor="middle" x="175" y="-229.8" font-family="Times,serif" font-size="14.00" fill="#000000">4</text>
</g>
<!-- 0&#45;&#45;4 -->
<g id="edge4" class="edge">
<title>0&#45;&#45;4</title>
<path fill="none" stroke="#000000" d="M120.6331,-290.7307C132.3427,-278.512 148.684,-261.4602 160.388,-249.2473"/>
</g>
<!-- 5 -->
<g id="node6" class="node">
<title>5</title>
<ellipse fill="none" stroke="#000000" cx="120" cy="-90" rx="27" ry="18"/>
<text text-anchor="middle" x="120" y="-85.8" font-family="Times,serif" font-size="14.00" fill="#000000">5</text>
</g>
<!-- 0&#45;&#45;5 -->
<g id="edge3" class="edge">
<title>0&#45;&#45;5</title>
<path fill="none" stroke="#000000" d="M107.1696,-287.9555C109.8048,-247.2967 116.1825,-148.8988 118.8239,-108.1451"/>
</g>
<!-- 1 -->
<g id="node2" class="node">
<title>1</title>
<ellipse fill="none" stroke="#000000" cx="188" cy="-306" rx="27" ry="18"/>
<text text-anchor="middle" x="188" y="-301.8" font-family="Times,serif" font-size="14.00" fill="#000000">1</text>
</g>
<!-- 1&#45;&#45;4 -->
<g id="edge6" class="edge">
<title>1&#45;&#45;4</title>
<path fill="none" stroke="#000000" d="M184.7196,-287.8314C182.7338,-276.8334 180.2117,-262.865 178.2344,-251.9134"/>
</g>
<!-- 1&#45;&#45;5 -->
<g id="edge5" class="edge">
<title>1&#45;&#45;5</title>
<path fill="none" stroke="#000000" d="M197.9292,-289.2343C207.4095,-271.0238 219.1374,-241.1656 211,-216 196.1394,-170.0424 157.5699,-126.7513 135.7124,-104.8668"/>
</g>
<!-- 2&#45;&#45;3 -->
<g id="edge7" class="edge">
<title>2&#45;&#45;3</title>
<path fill="none" stroke="#000000" d="M36.0055,-216.937C41.9752,-205.626 49.7851,-190.8282 55.7952,-179.4407"/>
</g>
<!-- 3&#45;&#45;5 -->
<g id="edge9" class="edge">
<title>3&#45;&#45;5</title>
<path fill="none" stroke="#000000" d="M77.4804,-145.6621C86.4814,-133.8788 98.5793,-118.0416 107.569,-106.2733"/>
</g>
<!-- 6 -->
<g id="node7" class="node">
<title>6</title>
<ellipse fill="none" stroke="#000000" cx="92" cy="-18" rx="27" ry="18"/>
<text text-anchor="middle" x="92" y="-13.8" font-family="Times,serif" font-size="14.00" fill="#000000">6</text>
</g>
<!-- 3&#45;&#45;6 -->
<g id="edge8" class="edge">
<title>3&#45;&#45;6</title>
<path fill="none" stroke="#000000" d="M68.365,-144.0535C73.5389,-116.4592 83.3933,-63.9026 88.5926,-36.1727"/>
</g>
<!-- 5&#45;&#45;6 -->
<g id="edge10" class="edge">
<title>5&#45;&#45;6</title>
<path fill="none" stroke="#000000" d="M113.222,-72.5708C108.8521,-61.3339 103.1894,-46.7727 98.8126,-35.5182"/>
</g>
</g>
</svg>
